<mxfile host="app.diagrams.net" modified="2022-07-25T19:31:10.051Z" agent="5.0 (Macintosh; Intel Mac OS X 10_15_7) AppleWebKit/605.1.15 (KHTML, like Gecko) Version/13.1.3 Safari/605.1.15" etag="DuzNaXQRhjwt__9HS-y-" version="20.2.0" type="github">
  <diagram id="zi3j83HsRzvybxTA101H" name="Page-1">
    <mxGraphModel dx="1554" dy="927" grid="1" gridSize="10" guides="1" tooltips="1" connect="1" arrows="1" fold="1" page="1" pageScale="1" pageWidth="827" pageHeight="1169" math="0" shadow="0">
      <root>
        <mxCell id="0" />
        <mxCell id="1" parent="0" />
      </root>
    </mxGraphModel>
  </diagram>
</mxfile>
